# xmcd
#
# Track frame offsets: 
#        150
#        22116
#        45582
#        68281
#        77020
#        92810
#        130316
#        153193
#
# Disc length: 2376 seconds
#
# Revision: 0
# Processed by: cddbd v1.5.1PL2 Copyright (c) Steve Scherf et al.
# Submitted via: ExactAudioCopy v0.95b4
#
DISCID=58094608
DTITLE=Hempbells - Hempbells
DYEAR=1999
DGENRE=Blues
TTITLE0=Back to the See
TTITLE1=Some old day
TTITLE2=Solitude at your Nightmares
TTITLE3=Wanna have my fun
TTITLE4=Thoughts
TTITLE5=Loving you again
TTITLE6=Tribute to Bo Diddley
TTITLE7=Early morning
EXTD=
EXTT0=
EXTT1=
EXTT2=
EXTT3=
EXTT4=
EXTT5=
EXTT6=
EXTT7=
PLAYORDER=
